Coordinates
version=1
nRows=5
nColumns=63
inDegrees=yes

Units are S.I. units (second, meters, Newtons, ...)
If the header above contains a line with 'inDegrees', this indicates whether rotational values are in degrees (yes) or radians (no).

endheader
time	pelvis_tilt	pelvis_list	pelvis_rotation	pelvis_tx	pelvis_ty	pelvis_tz	hip_flexion_r	hip_adduction_r	hip_rotation_r	knee_angle_r	knee_angle_r_beta	ankle_angle_r	subtalar_angle_r	mtp_angle_r	hip_flexion_l	hip_adduction_l	hip_rotation_l	knee_angle_l	knee_angle_l_beta	ankle_angle_l	subtalar_angle_l	mtp_angle_l	L5_S1_Flex_Ext	L5_S1_Lat_Bending	L5_S1_axial_rotation	L4_L5_Flex_Ext	L4_L5_Lat_Bending	L4_L5_axial_rotation	L3_L4_Flex_Ext	L3_L4_Lat_Bending	L3_L4_axial_rotation	L2_L3_Flex_Ext	L2_L3_Lat_Bending	L2_L3_axial_rotation	L1_L2_Flex_Ext	L1_L2_Lat_Bending	L1_L2_axial_rotation	L1_T12_Flex_Ext	L1_T12_Lat_Bending	L1_T12_axial_rotation	Abs_r3	Abs_r2	Abs_r1	Abs_t1	Abs_t2	neck_flexion	neck_bending	neck_rotation	arm_flex_r	arm_add_r	arm_rot_r	elbow_flex_r	pro_sup_r	wrist_flex_r	wrist_dev_r	arm_flex_l	arm_add_l	arm_rot_l	elbow_flex_l	pro_sup_l	wrist_flex_l	wrist_dev_l
      2.50000000	     -0.04507444	     -3.65445364	     93.24615694	      0.18312281	      1.00594232	      0.46433343	      1.57876368	     -1.13970954	    -21.11353434	     12.43892145	      0.21710013	     29.19103099	     11.48119551	      0.00000000	      0.45495527	     -0.36528987	    -10.99946715	      6.23600241	      0.10883877	     24.46782068	      8.51160426	      0.00000000	      0.18318123	      0.31157627	     -0.96249480	      0.34018587	      0.41439644	     -1.02265073	      0.30094845	      0.75756655	     -1.02265073	      0.20935783	      0.75756655	     -0.84218295	      0.17010209	      0.63536633	     -0.78202703	      0.10466976	      0.48263165	     -0.72187110	      1.30844524	      3.52461311	     -5.35310735	      0.00000000	      0.00000000	     24.91725795	      4.47283677	      5.08487249	      8.52749818	     -5.39398952	     43.13207854	     49.82676641	     46.90499972	     -1.50276588	     17.44897834	     12.63253057	     -6.26664952	     55.60895601	     45.00234960	     87.46689722	     -9.39670834	      2.05085327
      2.51666667	      0.01963763	     -3.66308979	     93.38072710	      0.18285884	      1.00580877	      0.46434947	      1.54012227	     -1.08805387	    -21.46257481	     12.37572014	      0.21599706	     29.31542456	     11.80276180	      0.00000000	      0.46482307	     -0.41417163	    -10.69499537	      6.19460277	      0.10811621	     24.38726867	      8.28331359	      0.00000000	      0.18431504	      0.32047907	     -0.98663633	      0.34229145	      0.42623716	     -1.04830110	      0.30281117	      0.77921281	     -1.04830110	      0.21065366	      0.77921281	     -0.86330679	      0.17115494	      0.65352092	     -0.80164202	      0.10531761	      0.49642208	     -0.73997725	      1.31654388	      3.62532334	     -5.48737526	      0.00000000	      0.00000000	     25.05639167	      4.49088406	      5.17203367	      8.55526423	     -5.44053722	     43.03099483	     49.93939748	     47.02964269	     -1.40255125	     17.61695490	     12.82799952	     -6.36748183	     56.44109906	     45.14440061	     87.71102718	     -9.89844985	      2.28008986
      2.53333333	      0.08752172	     -3.67329755	     93.48947439	      0.18265631	      1.00565900	      0.46446258	      1.53344811	     -1.00102846	    -21.42122696	     12.33882514	      0.21535312	     29.29054233	     11.57278371	      0.00000000	      0.49375835	     -0.48075678	    -10.61106942	      6.19946976	      0.10820116	     24.44703032	      8.28603408	      0.00000000	      0.17981155	      0.32718498	     -1.01328964	      0.33392802	      0.43515602	     -1.07662024	      0.29541239	      0.79551755	     -1.07662024	      0.20550662	      0.79551755	     -0.88662843	      0.16697300	      0.66719560	     -0.82329783	      0.10274432	      0.50680953	     -0.75996723	      1.28437590	      3.70118190	     -5.63561297	      0.00000000	      0.00000000	     25.21106089	      4.51628039	      5.08373737	      8.59083599	     -5.46998611	     43.15859707	     49.95912534	     46.87105241	     -1.45261745	     17.18314895	     12.86232195	     -6.45295144	     56.67178806	     45.38445266	     87.75830310	     -9.61250930	      2.74197747
      2.55000000	      0.12908861	     -3.67797131	     93.49302834	      0.18272334	      1.00555621	      0.46478160	      1.56118759	     -0.90848441	    -20.95259143	     12.33825576	      0.21534319	     29.13392096	     10.88504763	      0.00000000	      0.53522934	     -0.52989850	    -10.60543704	      6.24028465	      0.10891351	     24.44176167	      8.19366599	      0.00000000	      0.16850399	      0.33056110	     -1.01099514	      0.31292876	      0.43964626	     -1.07418234	      0.27683521	      0.80372625	     -1.07418234	      0.19258321	      0.80372625	     -0.88462075	      0.15647281	      0.67408019	     -0.82143355	      0.09628318	      0.51203914	     -0.75824636	      1.20360715	      3.73937325	     -5.62285168	      0.00000000	      0.00000000	     25.22894942	      4.55881823	      5.20637289	      8.68301652	     -5.51317104	     43.34329681	     49.95417793	     46.58914597	     -1.52723405	     16.91018858	     13.12898966	     -6.54951721	     57.40795026	     45.45479781	     87.79869292	     -9.19514169	      3.10571850
      2.56666667	      0.17039377	     -3.77621188	     93.72627505	      0.18234969	      1.00544194	      0.46503532	      1.65084194	     -0.96933905	    -21.91171215	     12.45231831	      0.21733395	     29.13704337	     11.71056304	      0.00000000	      0.75094470	     -0.59174824	    -10.68774780	      6.41613598	      0.11198270	     24.49870156	      8.59109579	      0.00000000	      0.17843855	      0.33720096	     -1.02298743	      0.33137822	      0.44847727	     -1.08692414	      0.29315669	      0.81987041	     -1.08692414	      0.20393741	      0.81987041	     -0.89511400	      0.16569803	      0.68762019	     -0.83117729	      0.10195979	      0.52232428	     -0.76724057	      1.27456869	      3.81448467	     -5.68954919	      0.00000000	      0.00000000	     24.89020577	      4.59159939	      5.70059514	      8.39076183	     -5.38686664	     42.31592513	     50.19376183	     45.14826197	     -2.08246653	     18.66938766	     13.52596467	     -6.46062782	     58.57013927	     45.09696872	     87.98696394	     -8.60837059	      2.86201334
